<svg xmlns="http://www.w3.org/2000/svg" width="32.141" height="50.354" viewBox="0 0 32.141 50.354">
  <g id="achievements" transform="translate(-56.713 -16.316)">
    <g id="Group_113" data-name="Group 113" transform="translate(56.713 16.316)">
      <g id="Group_112" data-name="Group 112" transform="translate(0 0)">
        <g id="Group_105" data-name="Group 105" transform="translate(0 21.164)">
          <g id="Group_98" data-name="Group 98" transform="translate(0 0)">
            <g id="Group_97" data-name="Group 97">
              <path id="Path_51" data-name="Path 51" d="M66.281,138.92l-2.152-6.534a.682.682,0,0,0-1.1-.3l-5.19,4.516a.682.682,0,0,1-1.1-.695L63.807,110.2l10.847,2.982-7.067,25.707A.682.682,0,0,1,66.281,138.92Z" transform="translate(-56.713 -110.199)" fill="#8c3f0a"/>
            </g>
          </g>
          <g id="Group_100" data-name="Group 100" transform="translate(6.824)">
            <g id="Group_99" data-name="Group 99">
              <path id="Path_52" data-name="Path 52" d="M87.253,110.2l-.27.982,7.276,2-5.919,21.528,1.387,4.211a.682.682,0,0,0,1.3-.033L98.1,113.181Z" transform="translate(-86.983 -110.199)" fill="#7c3108"/>
            </g>
          </g>
          <g id="Group_102" data-name="Group 102" transform="translate(14.2 0)">
            <g id="Group_101" data-name="Group 101">
              <path id="Path_53" data-name="Path 53" d="M128.076,138.92l2.152-6.534a.682.682,0,0,1,1.1-.3l5.19,4.516a.682.682,0,0,0,1.1-.695L130.551,110.2,119.7,113.181l7.067,25.707A.682.682,0,0,0,128.076,138.92Z" transform="translate(-119.704 -110.199)" fill="#8c3f0a"/>
            </g>
          </g>
          <g id="Group_104" data-name="Group 104" transform="translate(21.476 0)">
            <g id="Group_103" data-name="Group 103">
              <path id="Path_54" data-name="Path 54" d="M162.619,135.906,155.552,110.2l-3.571.982,6.189,22.51,3.345,2.91A.682.682,0,0,0,162.619,135.906Z" transform="translate(-151.981 -110.199)" fill="#7c3108"/>
            </g>
          </g>
        </g>
        <g id="Group_107" data-name="Group 107" transform="translate(0.033)">
          <g id="Group_106" data-name="Group 106">
            <path id="Path_55" data-name="Path 55" d="M75.493,17.478A3.5,3.5,0,0,1,81.581,20a3.5,3.5,0,0,0,3.67,3.67,3.5,3.5,0,0,1,2.521,6.088,3.5,3.5,0,0,0,0,5.191,3.5,3.5,0,0,1-2.521,6.088,3.5,3.5,0,0,0-3.67,3.67,3.5,3.5,0,0,1-6.088,2.521,3.5,3.5,0,0,0-5.191,0,3.5,3.5,0,0,1-6.088-2.521,3.5,3.5,0,0,0-3.67-3.67,3.5,3.5,0,0,1-2.521-6.088,3.5,3.5,0,0,0,0-5.191,3.5,3.5,0,0,1,2.521-6.088A3.5,3.5,0,0,0,64.215,20,3.5,3.5,0,0,1,70.3,17.478a3.5,3.5,0,0,0,5.191,0Z" transform="translate(-56.861 -16.316)" fill="#ffc91d"/>
          </g>
        </g>
        <g id="Group_109" data-name="Group 109" transform="translate(0.054 0.029)">
          <g id="Group_108" data-name="Group 108">
            <circle id="Ellipse_1" data-name="Ellipse 1" cx="11.859" cy="11.859" r="11.859" transform="translate(0 11.053) rotate(-27.769)" fill="#f79219"/>
          </g>
        </g>
        <g id="Group_111" data-name="Group 111" transform="translate(7.264 7.231)">
          <g id="Group_110" data-name="Group 110">
            <circle id="Ellipse_2" data-name="Ellipse 2" cx="8.806" cy="8.806" r="8.806" fill="#8c3f0a"/>
          </g>
        </g>
      </g>
    </g>
    <g id="Group_126" data-name="Group 126" transform="translate(66.074 26.955)">
      <g id="Group_125" data-name="Group 125" transform="translate(0 0)">
        <g id="Group_114" data-name="Group 114">
          <path id="Path_56" data-name="Path 56" d="M111.655,66.414a.651.651,0,0,1-.127.4l-2.614,3.491-1.691,2.259L105.475,74.9a.648.648,0,0,1-.417.253.573.573,0,0,1-.225,0,.648.648,0,0,1-.417-.253l-1.426-1.9-2.012-2.687-2.609-3.484a.663.663,0,0,1,0-.8l1.8-2.275a.639.639,0,0,1,.233-.177.663.663,0,0,1,.273-.06h8.538a.663.663,0,0,1,.273.06.65.65,0,0,1,.247.192l1.779,2.254a.659.659,0,0,1,.142.4Z" transform="translate(-98.236 -63.51)" fill="#ffa91a"/>
        </g>
        <g id="Group_116" data-name="Group 116" transform="translate(0 2.904)">
          <g id="Group_115" data-name="Group 115">
            <path id="Path_57" data-name="Path 57" d="M111.655,76.391a.651.651,0,0,1-.127.4l-2.614,3.491-1.691,2.259-1.747,2.333a.648.648,0,0,1-.417.253.572.572,0,0,1-.225,0,.648.648,0,0,1-.417-.253l-1.426-1.9-2.012-2.687L98.369,76.8a.651.651,0,0,1-.132-.407Z" transform="translate(-98.236 -76.391)" fill="#ef7816"/>
          </g>
        </g>
        <g id="Group_118" data-name="Group 118" transform="translate(4.415 2.904)">
          <g id="Group_117" data-name="Group 117">
            <path id="Path_58" data-name="Path 58" d="M122.41,76.391l-2.182,8.737a.573.573,0,0,1-.225,0l-2.182-8.737Z" transform="translate(-117.82 -76.391)" fill="#ffa91a"/>
          </g>
        </g>
        <g id="Group_120" data-name="Group 120" transform="translate(4.415 0)">
          <g id="Group_119" data-name="Group 119">
            <path id="Path_59" data-name="Path 59" d="M122.411,66.415h-4.589l2.294-2.9Z" transform="translate(-117.822 -63.511)" fill="#f79219"/>
          </g>
        </g>
        <g id="Group_122" data-name="Group 122" transform="translate(9.005 0.06)">
          <g id="Group_121" data-name="Group 121">
            <path id="Path_60" data-name="Path 60" d="M142.595,66.618H138.18l2.247-2.844a.65.65,0,0,1,.247.192l1.779,2.254A.659.659,0,0,1,142.595,66.618Z" transform="translate(-138.18 -63.774)" fill="#f79219"/>
          </g>
        </g>
        <g id="Group_124" data-name="Group 124" transform="translate(0 0.06)">
          <g id="Group_123" data-name="Group 123">
            <path id="Path_61" data-name="Path 61" d="M102.652,66.618H98.237a.65.65,0,0,1,.136-.392l1.8-2.275a.639.639,0,0,1,.233-.177Z" transform="translate(-98.237 -63.774)" fill="#f79219"/>
          </g>
        </g>
      </g>
    </g>
    <g id="Group_127" data-name="Group 127" transform="translate(61.886 21.567)">
      <path id="Path_62" data-name="Path 62" d="M80.111,50.847a.451.451,0,1,1,.451-.455v0A.452.452,0,0,1,80.111,50.847Zm.153-1.794a.441.441,0,0,1-.077-.007.447.447,0,0,1-.293-.185.456.456,0,0,1-.074-.336,10.935,10.935,0,0,1,7.315-8.478,10.731,10.731,0,0,1,1.828-.433.455.455,0,0,1,.512.381.445.445,0,0,1-.086.334.432.432,0,0,1-.3.176,10.01,10.01,0,0,0-8.386,8.174A.45.45,0,0,1,80.264,49.052Z" transform="translate(-79.66 -39.609)" fill="#ffa91a"/>
    </g>
  </g>
</svg>
