<svg xmlns="http://www.w3.org/2000/svg" width="28" height="23" viewBox="0 0 22.207 15.933">
  <g id="book" transform="translate(0 -58.303)">
    <g id="Group_1" data-name="Group 1" transform="translate(0 58.303)">
      <path id="Path_1" data-name="Path 1" d="M21.777,59.629H20.313v-.5A.43.43,0,0,0,20,58.7a12.125,12.125,0,0,0-3.1-.4,8.005,8.005,0,0,0-5.8,2.152,7.921,7.921,0,0,0-5.8-2.152,12.125,12.125,0,0,0-3.1.4.43.43,0,0,0-.31.43v.5H.43a.43.43,0,0,0-.43.43V73.8a.429.429,0,0,0,.641.374A15.177,15.177,0,0,1,11,73.318h.1a.431.431,0,0,0,.1,0,14.92,14.92,0,0,1,10.357.861.43.43,0,0,0,.646-.37V60.06A.43.43,0,0,0,21.777,59.629ZM.861,73.12V60.49H1.89v10.8a.431.431,0,0,0,.5.43,18.838,18.838,0,0,1,2.69-.215,11.166,11.166,0,0,1,3.676.555A15.825,15.825,0,0,0,.861,73.12Zm4.214-2.475a18.938,18.938,0,0,0-2.342.151V59.47a11.873,11.873,0,0,1,2.553-.284A7.028,7.028,0,0,1,10.658,61.3l.013,10.723A10.062,10.062,0,0,0,5.075,70.645Zm6.457-9.35A7.092,7.092,0,0,1,16.9,59.186a11.925,11.925,0,0,1,2.553.284V70.8a18.933,18.933,0,0,0-2.329-.155,10.146,10.146,0,0,0-5.6,1.373Zm9.81,11.825a15.828,15.828,0,0,0-7.908-1.063,11.193,11.193,0,0,1,3.693-.555,18.832,18.832,0,0,1,2.708.211.43.43,0,0,0,.5-.43V60.49h1.029Z" transform="translate(0 -58.303)" fill="#fff"/>
    </g>
  </g>
</svg>
