<svg width="29" height="29" viewBox="0 0 29 29" fill="none" xmlns="http://www.w3.org/2000/svg">
<path d="M23.312 14.5C23.312 19.3669 19.3669 23.312 14.5 23.312L13.7998 26.03L14.5 29C22.5084 29 29 22.5084 29 14.5L26.0314 13.7998L23.312 14.5Z" fill="#FB3A82"/>
<path d="M14.5 0C6.49164 0 0 6.49164 0 14.5L2.6539 14.8501L5.68802 14.5C5.68802 9.6331 9.6331 5.68802 14.5 5.68802L14.8501 2.76474L14.5 0Z" fill="#27D1B3"/>
<path d="M0 14.5C0 22.5084 6.49164 29 14.5 29V23.312C9.6331 23.312 5.68802 19.3669 5.68802 14.5H0Z" fill="#31A7FB"/>
<path d="M29 14.5C29 6.49164 22.5084 0 14.5 0V5.68802C19.3669 5.68802 23.312 9.6331 23.312 14.5H29Z" fill="#FC9744"/>
<path d="M29 14.5H26.6444C26.6444 7.29316 21.3882 1.3152 14.5 0.190199V0C22.5085 0 29 6.49147 29 14.5Z" fill="#FB8627"/>
<path d="M25.9861 7.23371C26.6816 8.06168 26.6402 9.30222 25.8618 10.0806C25.4633 10.4786 24.9335 10.698 24.3704 10.698C23.9987 10.698 23.6416 10.6022 23.3277 10.4226L22.6374 11.1129C22.1864 10.0305 21.5259 9.05719 20.7061 8.24434L24.7422 4.23572C25.454 4.94644 26.0924 5.73007 26.6444 6.57554L25.9861 7.23371Z" fill="#FB8627"/>
<path d="M29 14.5C29 22.5085 22.5085 29 14.5 29V28.8098C21.3882 27.6848 26.6444 21.7068 26.6444 14.5H29Z" fill="#FB1466"/>
<path d="M20.5587 5.33533L13.0278 12.8661C12.5833 13.3107 12.5833 14.0314 13.0278 14.476L11.8338 15.67C11.429 16.0748 11.399 16.7344 11.7892 17.1534C12.1988 17.5932 12.8877 17.6024 13.3091 17.1811L14.521 15.9691C14.9656 16.4137 15.6863 16.4137 16.1308 15.9691L23.6617 8.43833L20.5587 5.33533Z" fill="#CBE5E7"/>
<path d="M22.2983 9.80167L23.6617 8.43833L20.5587 5.33533L19.1953 6.69867C20.2296 7.73298 21.2639 8.76735 22.2983 9.80167Z" fill="#A9D3D8"/>
<path d="M23.6616 8.4386L16.131 15.9693C15.9087 16.1916 15.6175 16.303 15.3263 16.303C15.0346 16.303 14.7434 16.1916 14.5211 15.9693L13.3092 17.1812C12.8879 17.6025 12.1988 17.5931 11.7892 17.1532C11.6083 16.9594 11.5179 16.7138 11.5132 16.4664C11.7921 16.4734 12.0727 16.3707 12.2858 16.1577L13.2637 15.1797C13.3854 15.0581 13.5743 15.0326 13.7222 15.1206C13.9005 15.2265 14.1015 15.2796 14.3029 15.2796C14.5941 15.2796 14.8852 15.1681 15.1075 14.9458L22.6382 7.41516L23.6616 8.4386Z" fill="#A9D3D8"/>
<path d="M25.0365 7.92301C24.6528 7.53932 24.6528 6.91718 25.0365 6.5335L26.613 4.95702C27.3235 4.24652 27.3235 3.09451 26.613 2.38395C25.9025 1.67345 24.7505 1.67345 24.04 2.38395L22.4635 3.96043C22.0798 4.34411 21.4577 4.34411 21.074 3.96043C20.7061 3.59255 20.1096 3.59255 19.7417 3.96043C19.3739 4.32831 19.3739 4.92479 19.7417 5.29267L23.7043 9.25525C24.0722 9.62313 24.6687 9.62313 25.0366 9.25525C25.4044 8.88737 25.4044 8.29089 25.0365 7.92301Z" fill="#3F5959"/>
<path d="M25.0364 6.53345C24.653 6.91742 24.653 7.53939 25.0364 7.92279C25.2202 8.10716 25.3124 8.34816 25.3124 8.58917C25.3124 8.83018 25.2202 9.07113 25.0364 9.25555C24.6688 9.62314 24.0724 9.62314 23.7043 9.25555L22.5168 8.06813C22.885 8.43573 23.4814 8.43573 23.849 8.06813C24.0333 7.88433 24.125 7.64276 24.125 7.40176C24.125 7.16075 24.0334 6.91918 23.849 6.73538C23.4656 6.35203 23.4656 5.73001 23.849 5.34604L25.4256 3.76939C25.9222 3.27339 26.0716 2.56153 25.8743 1.93542C26.1445 2.02005 26.3989 2.16997 26.613 2.38413C27.3238 3.09424 27.3238 4.24665 26.613 4.95681L25.0364 6.53345Z" fill="#384848"/>
</svg>
