<svg width="26" height="26" viewBox="0 0 26 26" fill="none" xmlns="http://www.w3.org/2000/svg">
<g clip-path="url(#clip0)">
<path d="M19.5396 20.7719H1.60377C0.928383 20.7719 0.380859 20.6052 0.380859 19.9298V3.62453C0.380859 2.94913 0.928383 2.40161 1.60377 2.40161H19.5396C20.215 2.40161 20.7625 2.94913 20.7625 3.62453V19.9299C20.7625 20.6052 20.215 20.7719 19.5396 20.7719Z" fill="#ECEAEC"/>
<path d="M1.60377 5.66266H0.380859V19.9298C0.380859 20.6052 0.928383 21.1527 1.60377 21.1527H19.5396C20.215 21.1527 20.7625 20.6052 20.7625 19.9298H2.01139C1.78628 19.9298 1.60377 19.7473 1.60377 19.5222V5.66266Z" fill="#DAD8DB"/>
<path d="M19.5396 2.40161H1.60377C0.928383 2.40161 0.380859 2.94913 0.380859 3.62453V5.66268H20.7625V3.62453C20.7625 2.94913 20.215 2.40161 19.5396 2.40161V2.40161Z" fill="#FFA95F"/>
<path d="M3.23419 4.03213C2.78391 4.03213 2.41895 3.66711 2.41895 3.21689V1.5863C2.41895 1.13602 2.78396 0.771057 3.23419 0.771057C3.68446 0.771057 4.04943 1.13607 4.04943 1.5863V3.21683C4.04943 3.66711 3.68441 4.03213 3.23419 4.03213Z" fill="#ECEAEC"/>
<path d="M3.23419 4.03215C2.78391 4.03215 2.41895 3.66713 2.41895 3.2169V2.40161H4.04948V3.21685C4.04943 3.66713 3.68441 4.03215 3.23419 4.03215V4.03215Z" fill="#DAD8DB"/>
<path d="M19.5397 25.229C22.4664 25.229 24.8389 22.8565 24.8389 19.9298C24.8389 17.0031 22.4664 14.6306 19.5397 14.6306C16.613 14.6306 14.2405 17.0031 14.2405 19.9298C14.2405 22.8565 16.613 25.229 19.5397 25.229Z" fill="#FF8086"/>
<path d="M17.909 4.03213C17.4588 4.03213 17.0938 3.66711 17.0938 3.21689V1.5863C17.0938 1.13602 17.4588 0.771057 17.909 0.771057C18.3593 0.771057 18.7242 1.13607 18.7242 1.5863V3.21683C18.7243 3.66711 18.3593 4.03213 17.909 4.03213V4.03213Z" fill="#ECEAEC"/>
<path d="M17.909 4.03215C17.4588 4.03215 17.0938 3.66713 17.0938 3.2169V2.40161H18.7243V3.21685C18.7243 3.66713 18.3593 4.03215 17.909 4.03215V4.03215Z" fill="#DAD8DB"/>
<path d="M1.60377 3.62453V2.40161C0.928383 2.40161 0.380859 2.94913 0.380859 3.62453V5.66268H20.7625V4.43977H2.41902C1.96879 4.43977 1.60377 4.07475 1.60377 3.62453V3.62453Z" fill="#FF8B5A"/>
<path d="M19.5395 23.5985C21.5657 23.5985 23.2082 21.956 23.2082 19.9298C23.2082 17.9036 21.5657 16.2611 19.5395 16.2611C17.5134 16.2611 15.8708 17.9036 15.8708 19.9298C15.8708 21.956 17.5134 23.5985 19.5395 23.5985Z" fill="white"/>
<path d="M19.5396 21.968C20.6653 21.968 21.5778 21.0555 21.5778 19.9298C21.5778 18.8042 20.6653 17.8917 19.5396 17.8917C18.414 17.8917 17.5015 18.8042 17.5015 19.9298C17.5015 21.0555 18.414 21.968 19.5396 21.968Z" fill="#FF8086"/>
<path d="M24.4311 15.0382L24.4661 13.8503L23.0044 15.312C22.686 15.6304 22.686 16.1465 23.0044 16.4649C23.3228 16.7833 23.839 16.7833 24.1574 16.4649L25.6191 15.0032L24.4311 15.0382Z" fill="#E5646E"/>
<path d="M12.2021 9.739H8.94107C8.71596 9.739 8.53345 9.55649 8.53345 9.33137V8.51608C8.53345 8.29097 8.71596 8.10846 8.94107 8.10846H12.2021C12.4273 8.10846 12.6098 8.29097 12.6098 8.51608V9.33132C12.6098 9.55649 12.4273 9.739 12.2021 9.739V9.739Z" fill="#FF8086"/>
<path d="M17.9092 9.739H14.6481C14.423 9.739 14.2405 9.55649 14.2405 9.33137V8.51608C14.2405 8.29097 14.423 8.10846 14.6481 8.10846H17.9092C18.1343 8.10846 18.3168 8.29097 18.3168 8.51608V9.33132C18.3168 9.55649 18.1343 9.739 17.9092 9.739Z" fill="#FFC269"/>
<path d="M6.49535 9.739H3.23428C3.00917 9.739 2.82666 9.55649 2.82666 9.33137V8.51608C2.82666 8.29097 3.00917 8.10846 3.23428 8.10846H6.49535C6.72046 8.10846 6.90297 8.29097 6.90297 8.51608V9.33132C6.90297 9.55649 6.72046 9.739 6.49535 9.739Z" fill="#FF8B5A"/>
<path d="M20.132 24.6367C17.2053 24.6367 14.8328 22.2641 14.8328 19.3375C14.8328 18.0355 15.3041 16.8449 16.0832 15.9224C14.9576 16.8941 14.2405 18.3261 14.2405 19.9298C14.2405 22.8565 16.613 25.229 19.5397 25.229C21.1433 25.229 22.5754 24.512 23.547 23.3865C22.6245 24.1653 21.4339 24.6367 20.132 24.6367V24.6367Z" fill="#E5646E"/>
<path d="M12.6099 20.7719H1.60377C1.13948 20.7719 0.761719 20.3941 0.761719 19.9298V6.04351H20.3817V13C20.3817 13.2104 20.5522 13.3809 20.7625 13.3809C20.9729 13.3809 21.1434 13.2104 21.1434 13V3.6245C21.1434 2.74019 20.424 2.02072 19.5396 2.02072H19.1052V1.58629C19.1052 0.926742 18.5686 0.390137 17.9091 0.390137C17.2495 0.390137 16.7129 0.926691 16.7129 1.58629V2.02072H5.68009C5.46975 2.02072 5.29923 2.19125 5.29923 2.40158C5.29923 2.61192 5.46975 2.78244 5.68009 2.78244H16.713V3.21682C16.713 3.87637 17.2495 4.41298 17.9091 4.41298C18.5687 4.41298 19.1052 3.87642 19.1052 3.21682V2.78244H19.5397C20.004 2.78244 20.3817 3.16015 20.3817 3.6245V5.28179H0.761719V3.6245C0.761719 3.1602 1.13943 2.78244 1.60377 2.78244H2.03821V3.21682C2.03821 3.87637 2.57476 4.41298 3.23436 4.41298C3.89391 4.41298 4.43046 3.87642 4.43046 3.21682V1.58629C4.43046 0.926742 3.89391 0.390137 3.23431 0.390137C2.57476 0.390137 2.03821 0.926691 2.03821 1.58629V2.02072H1.60377C0.719418 2.02072 0 2.74019 0 3.6245V19.9298C0 20.8142 0.719418 21.5336 1.60377 21.5336H12.61C12.8203 21.5336 12.9909 21.3631 12.9909 21.1527C12.9909 20.9424 12.8203 20.7719 12.6099 20.7719V20.7719ZM17.9091 3.65126C17.6695 3.65126 17.4746 3.45641 17.4746 3.21682V1.58629C17.4746 1.34675 17.6695 1.15186 17.9091 1.15186C18.1486 1.15186 18.3435 1.3467 18.3435 1.58629V3.21682C18.3435 3.45641 18.1486 3.65126 17.9091 3.65126ZM2.79987 1.58629C2.79987 1.34675 2.99472 1.15186 3.23431 1.15186C3.47384 1.15186 3.66869 1.3467 3.66869 1.58629V3.21682C3.66869 3.45636 3.47384 3.65126 3.23431 3.65126C2.99477 3.65126 2.79993 3.45641 2.79993 3.21682V1.58629H2.79987Z" fill="black"/>
<path d="M25.8885 15.2725C25.9988 15.1622 26.0307 14.9956 25.9689 14.8523C25.907 14.709 25.7631 14.6174 25.608 14.6225L24.8238 14.6456L24.847 13.8615C24.8516 13.7055 24.7605 13.5624 24.6172 13.5006C24.4739 13.4387 24.3074 13.4705 24.197 13.5809L22.7353 15.0426C22.6968 15.0811 22.6627 15.1221 22.6306 15.1642C21.7109 14.5651 20.6508 14.2497 19.5397 14.2497C16.4077 14.2497 13.8596 16.7978 13.8596 19.9298C13.8596 23.0618 16.4077 25.6098 19.5397 25.6098C22.6717 25.6098 25.2198 23.0617 25.2198 19.9298C25.2198 18.8193 24.9045 17.7594 24.3058 16.8399C24.348 16.8076 24.3885 16.7725 24.4268 16.7342L25.8885 15.2725ZM23.2739 15.5812L24.0573 14.7978L24.0505 15.027C24.0475 15.1318 24.0877 15.2333 24.1619 15.3075C24.2361 15.3816 24.3369 15.4225 24.4424 15.4189L24.6716 15.4121L23.8882 16.1956C23.8061 16.2776 23.697 16.3228 23.581 16.3228C23.4649 16.3228 23.3559 16.2776 23.2738 16.1955C23.1044 16.0262 23.1044 15.7506 23.2739 15.5812V15.5812ZM19.5397 24.8481C16.8277 24.8481 14.6213 22.6417 14.6213 19.9298C14.6213 17.2178 16.8277 15.0114 19.5397 15.0114C20.5715 15.0114 21.5525 15.3254 22.387 15.9198C22.3914 16.0918 22.4326 16.2627 22.5107 16.4202L20.9593 17.9715C20.5446 17.6701 20.0547 17.5107 19.5397 17.5107C18.2058 17.5107 17.1207 18.5959 17.1207 19.9297C17.1207 21.2635 18.2059 22.3487 19.5397 22.3487C20.6676 22.3487 21.6613 21.5501 21.9026 20.4498C21.9476 20.2444 21.8176 20.0413 21.6121 19.9962C21.4067 19.9512 21.2036 20.0812 21.1585 20.2867C20.9933 21.0401 20.3125 21.587 19.5397 21.587C18.6258 21.587 17.8824 20.8435 17.8824 19.9297C17.8824 19.0159 18.6259 18.2724 19.5397 18.2724C19.8516 18.2724 20.1497 18.3578 20.4109 18.5199L19.2704 19.6604C19.1217 19.8091 19.1217 20.0503 19.2704 20.199C19.3448 20.2733 19.4423 20.3105 19.5397 20.3105C19.6372 20.3105 19.7347 20.2733 19.809 20.199L22.1178 17.8902C22.5764 18.4693 22.8275 19.1859 22.8275 19.9297C22.8275 21.7426 21.3526 23.2175 19.5397 23.2175C17.7268 23.2175 16.2519 21.7426 16.2519 19.9297C16.2519 18.1167 17.7268 16.6418 19.5397 16.6418C19.8565 16.6418 20.1696 16.6867 20.4704 16.7753C20.6721 16.8347 20.8839 16.7193 20.9433 16.5175C21.0027 16.3158 20.8873 16.104 20.6855 16.0446C20.3149 15.9354 19.9293 15.8801 19.5397 15.8801C17.3068 15.8801 15.4902 17.6967 15.4902 19.9296C15.4902 22.1626 17.3068 23.9792 19.5397 23.9792C21.7727 23.9792 23.5893 22.1626 23.5893 19.9296C23.5893 18.9838 23.2598 18.0736 22.6594 17.3485L23.0484 16.9595C23.203 17.0366 23.3735 17.0792 23.5506 17.0836C24.1443 17.9178 24.4581 18.8985 24.4581 19.9296C24.458 22.6418 22.2517 24.8481 19.5397 24.8481V24.8481Z" fill="black"/>
<path d="M12.9906 9.33131V8.51602C12.9906 8.08123 12.6369 7.72754 12.2021 7.72754H8.94107C8.50628 7.72754 8.15259 8.08123 8.15259 8.51602V9.33131C8.15259 9.7661 8.50628 10.1198 8.94107 10.1198H12.2021C12.6369 10.1198 12.9906 9.7661 12.9906 9.33131ZM12.2289 9.33131C12.2289 9.34609 12.2169 9.35807 12.2021 9.35807H8.94107C8.92629 9.35807 8.91431 9.34604 8.91431 9.33131V8.51602C8.91431 8.50124 8.92629 8.48926 8.94107 8.48926H12.2021C12.2169 8.48926 12.2289 8.50124 12.2289 8.51602V9.33131Z" fill="black"/>
<path d="M18.6977 9.33131V8.51602C18.6977 8.08123 18.344 7.72754 17.9092 7.72754H14.6481C14.2133 7.72754 13.8596 8.08123 13.8596 8.51602V9.33131C13.8596 9.7661 14.2133 10.1198 14.6481 10.1198H17.9092C18.3439 10.1198 18.6977 9.7661 18.6977 9.33131ZM17.9359 9.33131C17.9359 9.34609 17.9239 9.35807 17.9092 9.35807H14.6481C14.6333 9.35807 14.6213 9.34604 14.6213 9.33131V8.51602C14.6213 8.50124 14.6333 8.48926 14.6481 8.48926H17.9092C17.9239 8.48926 17.9359 8.50124 17.9359 8.51602V9.33131Z" fill="black"/>
<path d="M7.28383 9.33131V8.51602C7.28383 8.08123 6.93014 7.72754 6.49535 7.72754H3.23428C2.79949 7.72754 2.4458 8.08123 2.4458 8.51602V9.33131C2.4458 9.7661 2.79949 10.1198 3.23428 10.1198H6.49535C6.93014 10.1198 7.28383 9.7661 7.28383 9.33131ZM6.52211 9.33131C6.52211 9.34609 6.51013 9.35807 6.49535 9.35807H3.23428C3.2195 9.35807 3.20752 9.34604 3.20752 9.33131V8.51602C3.20752 8.50124 3.2195 8.48926 3.23428 8.48926H6.49535C6.51013 8.48926 6.52211 8.50124 6.52211 8.51602V9.33131Z" fill="black"/>
<path d="M6.49545 10.9886H3.23438C3.02404 10.9886 2.85352 11.1592 2.85352 11.3695C2.85352 11.5798 3.02404 11.7504 3.23438 11.7504H6.49545C6.70578 11.7504 6.87631 11.5798 6.87631 11.3695C6.87631 11.1592 6.70578 10.9886 6.49545 10.9886V10.9886Z" fill="black"/>
<path d="M6.49545 12.6192H3.23438C3.02404 12.6192 2.85352 12.7897 2.85352 13.0001C2.85352 13.2104 3.02404 13.3809 3.23438 13.3809H6.49545C6.70578 13.3809 6.87631 13.2104 6.87631 13.0001C6.87631 12.7897 6.70578 12.6192 6.49545 12.6192V12.6192Z" fill="black"/>
<path d="M6.49545 14.2497H3.23438C3.02404 14.2497 2.85352 14.4202 2.85352 14.6306C2.85352 14.8409 3.02404 15.0114 3.23438 15.0114H6.49545C6.70578 15.0114 6.87631 14.8409 6.87631 14.6306C6.87631 14.4202 6.70578 14.2497 6.49545 14.2497V14.2497Z" fill="black"/>
<path d="M12.2022 10.9886H8.94116C8.73083 10.9886 8.5603 11.1592 8.5603 11.3695C8.5603 11.5798 8.73083 11.7504 8.94116 11.7504H12.2022C12.4126 11.7504 12.5831 11.5798 12.5831 11.3695C12.5831 11.1592 12.4126 10.9886 12.2022 10.9886V10.9886Z" fill="black"/>
<path d="M12.2022 12.6192H8.94116C8.73083 12.6192 8.5603 12.7897 8.5603 13.0001C8.5603 13.2104 8.73083 13.3809 8.94116 13.3809H12.2022C12.4126 13.3809 12.5831 13.2104 12.5831 13.0001C12.5831 12.7897 12.4126 12.6192 12.2022 12.6192V12.6192Z" fill="black"/>
<path d="M12.2022 14.2497H8.94116C8.73083 14.2497 8.5603 14.4202 8.5603 14.6306C8.5603 14.8409 8.73083 15.0114 8.94116 15.0114H12.2022C12.4126 15.0114 12.5831 14.8409 12.5831 14.6306C12.5831 14.4202 12.4126 14.2497 12.2022 14.2497V14.2497Z" fill="black"/>
<path d="M12.2022 15.8802H8.94116C8.73083 15.8802 8.5603 16.0508 8.5603 16.2611C8.5603 16.4714 8.73083 16.642 8.94116 16.642H12.2022C12.4126 16.642 12.5831 16.4714 12.5831 16.2611C12.5831 16.0508 12.4126 15.8802 12.2022 15.8802V15.8802Z" fill="black"/>
<path d="M12.2022 17.5108H8.94116C8.73083 17.5108 8.5603 17.6813 8.5603 17.8917C8.5603 18.102 8.73083 18.2725 8.94116 18.2725H12.2022C12.4126 18.2725 12.5831 18.102 12.5831 17.8917C12.5831 17.6813 12.4126 17.5108 12.2022 17.5108V17.5108Z" fill="black"/>
<path d="M17.909 10.9886H14.6479C14.4376 10.9886 14.2671 11.1592 14.2671 11.3695C14.2671 11.5798 14.4376 11.7504 14.6479 11.7504H17.909C18.1194 11.7504 18.2899 11.5798 18.2899 11.3695C18.2899 11.1592 18.1194 10.9886 17.909 10.9886Z" fill="black"/>
<path d="M17.909 12.6192H14.6479C14.4376 12.6192 14.2671 12.7897 14.2671 13.0001C14.2671 13.2104 14.4376 13.3809 14.6479 13.3809H17.909C18.1194 13.3809 18.2899 13.2104 18.2899 13.0001C18.2899 12.7897 18.1194 12.6192 17.909 12.6192Z" fill="black"/>
</g>
<defs>
<clipPath id="clip0">
<rect width="26" height="26" fill="white"/>
</clipPath>
</defs>
</svg>
