<svg width="251" height="55" viewBox="0 0 251 55" fill="none" xmlns="http://www.w3.org/2000/svg">
<g clip-path="url(#clip0)">
<path fill-rule="evenodd" clip-rule="evenodd" d="M5.17795 50.2515C6.99038 50.2515 8.45966 49.5242 8.45966 48.627C8.45966 47.7297 6.99038 47.0025 5.17795 47.0025C3.36552 47.0025 1.89624 47.7297 1.89624 48.627C1.89624 49.5242 3.36552 50.2515 5.17795 50.2515Z" fill="#683005"/>
<path fill-rule="evenodd" clip-rule="evenodd" d="M3.52197 48.1695C3.52197 47.9998 3.52197 43.0938 3.52197 42.9242C3.52197 42.4783 4.2576 42.1155 5.16384 42.1155C6.06824 42.1155 6.80386 42.4783 6.80386 42.9242C6.80386 43.0938 6.80386 47.9998 6.80386 48.1695C6.80386 48.6153 6.06824 48.9763 5.16384 48.9763C4.2576 48.9763 3.52197 48.6153 3.52197 48.1695Z" fill="url(#paint0_linear)"/>
<path fill-rule="evenodd" clip-rule="evenodd" d="M5.16396 43.7285C6.07012 43.7285 6.80472 43.3671 6.80472 42.9213C6.80472 42.4754 6.07012 42.1141 5.16396 42.1141C4.25778 42.1141 3.52319 42.4754 3.52319 42.9213C3.52319 43.3671 4.25778 43.7285 5.16396 43.7285Z" fill="#E09322"/>
<path fill-rule="evenodd" clip-rule="evenodd" d="M0.241455 43.6606L5.16382 46.0823L10.0147 43.6959L5.16382 31.5524L0.241455 43.6606Z" fill="url(#paint1_linear)"/>
<path fill-rule="evenodd" clip-rule="evenodd" d="M36.3386 54.2959C38.1511 54.2959 39.6203 53.5687 39.6203 52.6714C39.6203 51.7742 38.1511 51.0469 36.3386 51.0469C34.5261 51.0469 33.0569 51.7742 33.0569 52.6714C33.0569 53.5687 34.5261 54.2959 36.3386 54.2959Z" fill="#683005"/>
<path fill-rule="evenodd" clip-rule="evenodd" d="M34.696 52.2063C34.696 52.0366 34.696 47.1306 34.696 46.961C34.696 46.5151 35.4317 46.1523 36.3379 46.1523C37.2423 46.1523 37.9779 46.5151 37.9779 46.961C37.9779 47.1306 37.9779 52.0366 37.9779 52.2063C37.9779 52.6521 37.2423 53.0131 36.3379 53.0131C35.4317 53.0131 34.696 52.6521 34.696 52.2063Z" fill="url(#paint2_linear)"/>
<path fill-rule="evenodd" clip-rule="evenodd" d="M36.338 47.7653C37.2441 47.7653 37.9788 47.4038 37.9788 46.9581C37.9788 46.5123 37.2441 46.1508 36.338 46.1508C35.4318 46.1508 34.6973 46.5123 34.6973 46.9581C34.6973 47.4038 35.4318 47.7653 36.338 47.7653Z" fill="#E09322"/>
<path fill-rule="evenodd" clip-rule="evenodd" d="M31.4165 47.696L36.3388 50.1176L41.1897 47.7314L36.3388 39.1978L31.4165 47.696Z" fill="url(#paint3_linear)"/>
<path fill-rule="evenodd" clip-rule="evenodd" d="M23.2119 46.2226C25.0244 46.2226 26.4936 45.4954 26.4936 44.5981C26.4936 43.7009 25.0244 42.9736 23.2119 42.9736C21.3994 42.9736 19.9302 43.7009 19.9302 44.5981C19.9302 45.4954 21.3994 46.2226 23.2119 46.2226Z" fill="#683005"/>
<path fill-rule="evenodd" clip-rule="evenodd" d="M21.571 44.1333C21.571 43.9637 21.571 28.2278 21.571 28.0581C21.571 27.6123 22.3067 27.2495 23.2129 27.2495C24.1173 27.2495 24.8529 27.6123 24.8529 28.0581C24.8529 28.2278 24.8529 43.9637 24.8529 44.1333C24.8529 44.5792 24.1173 44.9402 23.2129 44.9402C22.3067 44.9402 21.571 44.5792 21.571 44.1333Z" fill="url(#paint4_linear)"/>
<path fill-rule="evenodd" clip-rule="evenodd" d="M23.2128 28.8624C24.119 28.8624 24.8535 28.5011 24.8535 28.0552C24.8535 27.6094 24.119 27.248 23.2128 27.248C22.3065 27.248 21.572 27.6094 21.572 28.0552C21.572 28.5011 22.3065 28.8624 23.2128 28.8624Z" fill="#E09322"/>
<path fill-rule="evenodd" clip-rule="evenodd" d="M13.3677 27.5161L23.2123 32.3592L33.0573 27.5161L23.2123 0.0708008L13.3677 27.5161Z" fill="url(#paint5_linear)"/>
</g>
<path d="M72.384 19.888C74.448 19.888 76.16 20.4 77.52 21.424C78.88 22.432 79.752 23.8 80.136 25.528H76.584C76.248 24.76 75.712 24.152 74.976 23.704C74.256 23.24 73.4 23.008 72.408 23.008C71.432 23.008 70.568 23.232 69.816 23.68C69.064 24.128 68.48 24.768 68.064 25.6C67.648 26.432 67.44 27.408 67.44 28.528C67.44 30.304 67.912 31.688 68.856 32.68C69.816 33.672 71.12 34.168 72.768 34.168C73.984 34.168 75.024 33.808 75.888 33.088C76.768 32.368 77.336 31.368 77.592 30.088H71.856V27.664H80.424V30.928C80.184 32.048 79.712 33.08 79.008 34.024C78.32 34.968 77.408 35.728 76.272 36.304C75.152 36.864 73.864 37.144 72.408 37.144C70.744 37.144 69.272 36.784 67.992 36.064C66.728 35.328 65.744 34.312 65.04 33.016C64.352 31.704 64.008 30.208 64.008 28.528C64.008 26.848 64.352 25.36 65.04 24.064C65.744 22.752 66.728 21.728 67.992 20.992C69.256 20.256 70.72 19.888 72.384 19.888ZM86.3419 26.248C86.8379 25.4 87.4939 24.736 88.3099 24.256C89.1259 23.76 90.0379 23.512 91.0459 23.512V27.136H90.0619C87.5819 27.136 86.3419 28.288 86.3419 30.592V37H82.9579V23.704H86.3419V26.248ZM99.0628 23.536C100.359 23.536 101.519 23.808 102.543 24.352C103.583 24.896 104.399 25.688 104.991 26.728C105.583 27.752 105.879 28.96 105.879 30.352C105.879 31.744 105.583 32.952 104.991 33.976C104.399 35 103.583 35.792 102.543 36.352C101.519 36.896 100.359 37.168 99.0628 37.168C97.7668 37.168 96.5988 36.896 95.5588 36.352C94.5348 35.792 93.7268 35 93.1348 33.976C92.5428 32.952 92.2468 31.744 92.2468 30.352C92.2468 28.96 92.5428 27.752 93.1348 26.728C93.7268 25.688 94.5348 24.896 95.5588 24.352C96.5988 23.808 97.7668 23.536 99.0628 23.536ZM99.0628 26.464C98.1188 26.464 97.3188 26.8 96.6628 27.472C96.0068 28.128 95.6788 29.088 95.6788 30.352C95.6788 31.616 96.0068 32.584 96.6628 33.256C97.3188 33.912 98.1188 34.24 99.0628 34.24C100.007 34.24 100.807 33.912 101.463 33.256C102.119 32.584 102.447 31.616 102.447 30.352C102.447 29.088 102.119 28.128 101.463 27.472C100.807 26.8 100.007 26.464 99.0628 26.464ZM127.302 23.704L123.726 37H119.982L117.126 27.328L114.198 37H110.454L106.902 23.704H110.286L112.446 33.976L115.398 23.704H118.974L121.95 33.976L124.134 23.704H127.302ZM128.605 19.888C128.605 19.344 128.797 18.904 129.181 18.568C129.565 18.216 130.069 18.04 130.693 18.04C131.317 18.04 131.821 18.216 132.205 18.568C132.589 18.904 132.781 19.344 132.781 19.888C132.781 20.416 132.589 20.856 132.205 21.208C131.821 21.544 131.317 21.712 130.693 21.712C130.069 21.712 129.565 21.544 129.181 21.208C128.797 20.856 128.605 20.416 128.605 19.888ZM132.373 23.704V37H128.989V23.704H132.373ZM143.354 23.512C144.89 23.512 146.114 24.016 147.026 25.024C147.938 26.032 148.394 27.448 148.394 29.272V37H145.034V29.656C145.034 28.6 144.762 27.784 144.218 27.208C143.674 26.616 142.93 26.32 141.986 26.32C141.026 26.32 140.258 26.632 139.682 27.256C139.106 27.88 138.818 28.776 138.818 29.944V37H135.434V23.704H138.818V26.368C139.17 25.472 139.746 24.776 140.546 24.28C141.362 23.768 142.298 23.512 143.354 23.512ZM156.58 23.536C157.7 23.536 158.66 23.8 159.46 24.328C160.26 24.856 160.828 25.568 161.164 26.464V23.704H164.524V37.048C164.524 38.28 164.276 39.384 163.78 40.36C163.3 41.352 162.572 42.128 161.596 42.688C160.636 43.248 159.468 43.528 158.092 43.528C156.172 43.528 154.62 43.072 153.436 42.16C152.252 41.248 151.532 40.008 151.276 38.44H154.612C154.804 39.112 155.172 39.632 155.716 40C156.276 40.384 156.988 40.576 157.852 40.576C158.844 40.576 159.644 40.28 160.252 39.688C160.86 39.112 161.164 38.232 161.164 37.048V34.216C160.828 35.112 160.26 35.832 159.46 36.376C158.66 36.904 157.7 37.168 156.58 37.168C155.46 37.168 154.452 36.896 153.556 36.352C152.66 35.808 151.956 35.024 151.444 34C150.948 32.96 150.7 31.744 150.7 30.352C150.7 28.96 150.948 27.752 151.444 26.728C151.956 25.688 152.66 24.896 153.556 24.352C154.452 23.808 155.46 23.536 156.58 23.536ZM157.636 26.488C156.58 26.488 155.732 26.832 155.092 27.52C154.452 28.208 154.132 29.152 154.132 30.352C154.132 31.552 154.452 32.496 155.092 33.184C155.732 33.856 156.58 34.192 157.636 34.192C158.66 34.192 159.5 33.848 160.156 33.16C160.828 32.456 161.164 31.52 161.164 30.352C161.164 29.168 160.828 28.232 160.156 27.544C159.5 26.84 158.66 26.488 157.636 26.488Z" fill="#393842"/>
<path d="M184.337 20.056V22.744H179.657V37H176.273V22.744H171.617V20.056H184.337ZM189.584 26.248C190.08 25.4 190.736 24.736 191.552 24.256C192.368 23.76 193.28 23.512 194.288 23.512V27.136H193.304C190.824 27.136 189.584 28.288 189.584 30.592V37H186.2V23.704H189.584V26.248ZM208.665 29.848C208.665 30.184 208.625 30.568 208.545 31H198.801C198.849 32.184 199.169 33.056 199.761 33.616C200.353 34.176 201.089 34.456 201.969 34.456C202.753 34.456 203.401 34.264 203.913 33.88C204.441 33.496 204.777 32.976 204.921 32.32H208.497C208.321 33.248 207.945 34.08 207.369 34.816C206.793 35.552 206.049 36.128 205.137 36.544C204.241 36.96 203.241 37.168 202.137 37.168C200.841 37.168 199.689 36.896 198.681 36.352C197.673 35.792 196.889 35 196.329 33.976C195.769 32.952 195.489 31.744 195.489 30.352C195.489 28.96 195.769 27.752 196.329 26.728C196.889 25.688 197.673 24.896 198.681 24.352C199.689 23.808 200.841 23.536 202.137 23.536C203.449 23.536 204.593 23.808 205.569 24.352C206.561 24.896 207.321 25.648 207.849 26.608C208.393 27.552 208.665 28.632 208.665 29.848ZM205.257 29.512C205.305 28.424 205.017 27.6 204.393 27.04C203.785 26.48 203.033 26.2 202.137 26.2C201.225 26.2 200.457 26.48 199.833 27.04C199.209 27.6 198.865 28.424 198.801 29.512H205.257ZM223.571 29.848C223.571 30.184 223.531 30.568 223.451 31H213.707C213.755 32.184 214.075 33.056 214.667 33.616C215.259 34.176 215.995 34.456 216.875 34.456C217.659 34.456 218.307 34.264 218.819 33.88C219.347 33.496 219.683 32.976 219.827 32.32H223.403C223.227 33.248 222.851 34.08 222.275 34.816C221.699 35.552 220.955 36.128 220.043 36.544C219.147 36.96 218.147 37.168 217.043 37.168C215.747 37.168 214.595 36.896 213.587 36.352C212.579 35.792 211.795 35 211.235 33.976C210.675 32.952 210.395 31.744 210.395 30.352C210.395 28.96 210.675 27.752 211.235 26.728C211.795 25.688 212.579 24.896 213.587 24.352C214.595 23.808 215.747 23.536 217.043 23.536C218.355 23.536 219.499 23.808 220.475 24.352C221.467 24.896 222.227 25.648 222.755 26.608C223.299 27.552 223.571 28.632 223.571 29.848ZM220.163 29.512C220.211 28.424 219.923 27.6 219.299 27.04C218.691 26.48 217.939 26.2 217.043 26.2C216.131 26.2 215.363 26.48 214.739 27.04C214.115 27.6 213.771 28.424 213.707 29.512H220.163ZM230.558 23.536C232.174 23.536 233.47 23.944 234.446 24.76C235.422 25.576 236.03 26.664 236.27 28.024H233.102C232.974 27.384 232.686 26.872 232.238 26.488C231.79 26.104 231.206 25.912 230.486 25.912C229.91 25.912 229.462 26.048 229.142 26.32C228.822 26.592 228.662 26.96 228.662 27.424C228.662 27.792 228.79 28.088 229.046 28.312C229.302 28.536 229.622 28.712 230.006 28.84C230.39 28.968 230.942 29.12 231.662 29.296C232.67 29.52 233.486 29.76 234.11 30.016C234.75 30.256 235.294 30.648 235.742 31.192C236.206 31.72 236.438 32.44 236.438 33.352C236.438 34.488 235.99 35.408 235.094 36.112C234.214 36.816 233.022 37.168 231.518 37.168C229.79 37.168 228.406 36.784 227.366 36.016C226.326 35.232 225.694 34.12 225.47 32.68H228.71C228.79 33.336 229.078 33.856 229.574 34.24C230.07 34.608 230.718 34.792 231.518 34.792C232.094 34.792 232.534 34.656 232.838 34.384C233.142 34.096 233.294 33.728 233.294 33.28C233.294 32.896 233.158 32.584 232.886 32.344C232.63 32.104 232.302 31.92 231.902 31.792C231.518 31.664 230.966 31.512 230.246 31.336C229.254 31.112 228.446 30.888 227.822 30.664C227.214 30.424 226.686 30.048 226.238 29.536C225.806 29.024 225.59 28.32 225.59 27.424C225.59 26.272 226.03 25.336 226.91 24.616C227.79 23.896 229.006 23.536 230.558 23.536Z" fill="#0ABB11"/>
<defs>
<linearGradient id="paint0_linear" x1="6.77191" y1="48.9763" x2="6.77191" y2="42.2529" gradientUnits="userSpaceOnUse">
<stop stop-color="#E09322"/>
<stop offset="1" stop-color="#862A09"/>
</linearGradient>
<linearGradient id="paint1_linear" x1="10.5934" y1="46.0823" x2="10.5934" y2="29.938" gradientUnits="userSpaceOnUse">
<stop stop-color="#C0DA3F"/>
<stop offset="1" stop-color="#6C9904"/>
</linearGradient>
<linearGradient id="paint2_linear" x1="37.9458" y1="53.0131" x2="37.9458" y2="46.2897" gradientUnits="userSpaceOnUse">
<stop stop-color="#E09322"/>
<stop offset="1" stop-color="#862A09"/>
</linearGradient>
<linearGradient id="paint3_linear" x1="43.5634" y1="50.1176" x2="43.5634" y2="33.9734" gradientUnits="userSpaceOnUse">
<stop stop-color="#C0DA3F"/>
<stop offset="1" stop-color="#6C9904"/>
</linearGradient>
<linearGradient id="paint4_linear" x1="24.8539" y1="44.9402" x2="24.8539" y2="27.2501" gradientUnits="userSpaceOnUse">
<stop stop-color="#E09322"/>
<stop offset="1" stop-color="#862A09"/>
</linearGradient>
<linearGradient id="paint5_linear" x1="33.0573" y1="32.3592" x2="33.0573" y2="0.0707815" gradientUnits="userSpaceOnUse">
<stop stop-color="#C0DA3F"/>
<stop offset="1" stop-color="#6C9904"/>
</linearGradient>
<clipPath id="clip0">
<rect width="41.4594" height="54.6911" fill="white"/>
</clipPath>
</defs>
</svg>
