<svg width="28" height="28" viewBox="0 0 28 28" fill="none" xmlns="http://www.w3.org/2000/svg">
<path d="M13.9999 4.725C16.7999 4.725 19.3665 5.89165 21.2333 7.7L23.9166 5.01665C21.4083 2.50835 17.9083 0.93335 13.9999 0.93335C10.1499 0.93335 6.6499 2.50835 4.08325 5.0167L6.7666 7.70005C8.63325 5.83335 11.1999 4.725 13.9999 4.725Z" fill="#F8B64C"/>
<path d="M6.76665 7.69995L4.08335 5.0166C1.575 7.5833 0 11.0833 0 14.9333C0 18.7833 1.575 22.2833 4.08335 24.85L6.7667 22.1666C4.90005 20.3 3.7917 17.7333 3.7917 14.9333C3.79165 12.1333 4.9 9.5666 6.76665 7.69995Z" fill="#54C0EB"/>
<path d="M23.9164 5.0166L21.2332 7.69995C23.0998 9.5666 24.2081 12.1333 24.2081 14.9333C24.2081 17.7333 23.0415 20.3 21.2332 22.1667L23.9165 24.85C26.4248 22.3416 27.9998 18.8416 27.9998 14.9333C27.9998 11.0833 26.4248 7.5833 23.9164 5.0166Z" fill="#F1543F"/>
<path d="M21.2335 7.69997L18.6669 10.2666C17.4419 9.09997 15.8085 8.34162 14.0003 8.34162C12.192 8.34162 10.5003 9.09997 9.3336 10.2666L6.76685 7.69997C8.63355 5.83333 11.2002 4.72498 14.0002 4.72498C16.8002 4.72498 19.3668 5.83333 21.2335 7.69997Z" fill="#FFD15C"/>
<path d="M9.3334 19.6L6.76675 22.1667C4.9001 20.3 3.79175 17.7333 3.79175 14.9333C3.79175 12.1333 4.9584 9.56665 6.76675 7.69995L9.3334 10.2666C8.16675 11.4332 7.4084 13.125 7.4084 14.9332C7.35004 16.7417 8.1084 18.4334 9.3334 19.6Z" fill="#84DBFF"/>
<path d="M24.2085 14.9333C24.2085 17.7333 23.0418 20.3 21.2335 22.1667L18.6667 19.6C19.8334 18.375 20.5917 16.7416 20.5917 14.9333C20.5917 13.125 19.8334 11.4333 18.6667 10.2667L21.2334 7.70001C23.1001 9.56661 24.2085 12.1333 24.2085 14.9333Z" fill="#FF7058"/>
<path d="M22.9834 9.3916L15.4001 15.1666C15.2834 15.8666 14.7001 16.3332 14.0001 16.3332C13.1835 16.3332 12.5417 15.6916 12.5417 14.8749C12.5417 14.0582 13.1834 13.4165 14.0001 13.4165C14.1751 13.4165 14.2917 13.4165 14.4667 13.4749L22.9834 9.3916Z" fill="#40596B"/>
<path d="M19.0168 27.0667H8.98349C7.75849 27.0667 6.76685 26.075 6.76685 24.85C6.76685 23.625 7.75849 22.6334 8.98349 22.6334H18.9585C20.1835 22.6334 21.1751 23.625 21.1751 24.85C21.2335 26.075 20.2418 27.0667 19.0168 27.0667Z" fill="#CDD6E0"/>
<path d="M14.0001 15.5169C14.3223 15.5169 14.5835 15.2557 14.5835 14.9335C14.5835 14.6113 14.3223 14.3502 14.0001 14.3502C13.6779 14.3502 13.4167 14.6113 13.4167 14.9335C13.4167 15.2557 13.6779 15.5169 14.0001 15.5169Z" fill="white"/>
</svg>
