<svg width="29" height="29" viewBox="0 0 29 29" fill="none" xmlns="http://www.w3.org/2000/svg">
<g clip-path="url(#clip0)">
<path d="M6.26111 23.8673C5.31901 23.8673 4.48514 23.7818 3.76773 23.611C2.43544 23.294 1.57988 22.6991 1.22475 21.8432C0.314022 19.6481 3.14509 16.7605 5.68037 14.7246C7.14612 13.5476 8.1687 12.5491 8.7197 11.757C9.09914 11.2115 9.24063 10.7775 9.10775 10.5664C8.73381 9.97222 6.22163 10.1783 4.06572 11.2115C3.29263 11.5819 2.51502 11.6778 1.81709 11.489C1.14114 11.3061 0.596659 10.8663 0.283946 10.2508C-0.163684 9.36985 -0.0790062 8.24032 0.516342 7.15186C1.19053 5.91903 2.49372 4.75824 4.28486 3.79484C6.38221 2.66684 8.7585 2.04736 10.984 2.04736C11.0061 2.04736 11.028 2.04742 11.0501 2.04753C13.2009 2.05943 15.0227 2.6285 16.1799 3.65006C17.4095 4.73552 17.7456 6.21548 17.1261 7.8175C16.247 10.091 16.1282 11.7278 16.7917 12.4264C17.1222 12.7744 17.8521 13.079 19.4524 12.5532C19.6755 12.4799 19.9154 12.6013 19.9886 12.8242C20.0618 13.0471 19.9405 13.2871 19.7176 13.3603C17.695 14.0247 16.6751 13.5373 16.1757 13.0115C15.2472 12.0339 15.3004 10.1833 16.3337 7.51108C16.8225 6.24692 16.5749 5.13206 15.6176 4.28704C14.6289 3.41427 12.9624 2.90773 11.0453 2.89714C11.0248 2.89703 11.0041 2.89697 10.9836 2.89697C8.89631 2.89697 6.66303 3.48048 4.68729 4.54311C2.60779 5.66148 1.67674 6.80069 1.26168 7.55945C0.803 8.39818 0.722627 9.23878 1.04129 9.86585C1.48699 10.743 2.57976 10.9813 3.69846 10.4452C5.73956 9.4671 9.00472 8.80775 9.82674 10.1138C10.4937 11.1735 9.31137 12.8984 6.21228 15.3871C2.99635 17.9696 1.46445 20.2041 2.00944 21.5176C2.31445 22.2528 3.24092 22.6123 3.96445 22.7845C5.07494 23.0489 6.57795 23.0874 8.3111 22.896C11.1123 22.5867 12.7257 21.6407 14.1491 20.8061C16.2269 19.5878 17.8681 18.6254 21.7165 20.699C21.923 20.8103 22.0003 21.0679 21.889 21.2744C21.7776 21.481 21.52 21.5582 21.3135 21.4469C17.8858 19.6001 16.5702 20.3714 14.5789 21.539C13.1563 22.3731 11.3857 23.4112 8.40438 23.7404C7.63877 23.825 6.92318 23.8672 6.26111 23.8673Z" fill="#404B58"/>
<path d="M19.0439 8.68892L23.9026 13.5476L25.8611 11.5891L21.0024 6.73045L19.0439 8.68892Z" fill="#404B58"/>
<path d="M25.8614 11.5893L21.0024 6.73041L23.6259 4.10693C24.3127 3.42017 25.4261 3.42017 26.1129 4.10693L28.4849 6.47892C29.1717 7.16569 29.1717 8.27907 28.4849 8.9659L25.8614 11.5893Z" fill="#ED718B"/>
<path d="M13.2165 24.2335L23.9023 13.5477L19.0437 8.68898L8.35782 19.3748L13.2165 24.2335Z" fill="#FDA75F"/>
<path opacity="0.05" d="M9.97773 20.9948L11.5974 22.6145L22.2832 11.9287L20.6636 10.309L9.97773 20.9948Z" fill="black"/>
<path d="M13.1871 22.2118L12.1757 22.4678C11.9145 22.534 11.6774 22.2969 11.7436 22.0356L11.9996 21.0243C12.0658 20.7631 11.8287 20.526 11.5674 20.5922L10.5561 20.8482C10.2948 20.9143 10.0578 20.6772 10.1239 20.416L10.38 19.4047C10.4461 19.1435 10.209 18.9064 9.94779 18.9725L8.35784 19.3751C7.80321 19.9297 7.38362 20.6047 7.13185 21.3476L5.69573 25.5848C5.42069 26.3964 6.19542 27.1711 7.00702 26.8961L11.2442 25.46C11.9871 25.2082 12.6621 24.7887 13.2168 24.234L13.6193 22.644C13.6854 22.3827 13.4483 22.1456 13.1871 22.2118Z" fill="#FBE096"/>
<path d="M6.54721 23.0726L5.69573 25.5848C5.42069 26.3964 6.19542 27.1711 7.00702 26.8961L9.51919 26.0446L6.54721 23.0726Z" fill="#404B58"/>
<path opacity="0.1" d="M28.485 6.47886L27.5816 5.5755C28.2683 6.26227 28.2683 7.37565 27.5816 8.06242L24.9581 10.6859L22.9996 12.6444L12.3134 23.3307C11.7588 23.8853 11.0838 24.3049 10.3409 24.5566L6.1037 25.9928C5.9476 26.0457 5.79292 26.0594 5.64673 26.0418C5.72053 26.6555 6.35168 27.1183 7.00706 26.8961L11.2442 25.46C11.9872 25.2082 12.6621 24.7887 13.2168 24.234L23.903 13.5478L25.8615 11.5893L28.485 8.96583C29.1717 8.27907 29.1717 7.16563 28.485 6.47886Z" fill="black"/>
</g>
<defs>
<clipPath id="clip0">
<rect width="29" height="29" fill="white"/>
</clipPath>
</defs>
</svg>
