<svg width="27" height="27" viewBox="0 0 27 27" fill="none" xmlns="http://www.w3.org/2000/svg">
<path d="M15.9679 24.8673C17.021 25.9204 18.7285 25.9204 19.7816 24.8673L24.8667 19.7821C25.9199 18.729 25.9199 17.0216 24.8667 15.9684L23.2774 14.3793L14.3782 23.2785L15.9679 24.8673Z" fill="#FFEB99"/>
<path d="M0.712939 9.61228L14.3787 23.278L23.2779 14.3788L21.3712 12.4723L12.472 21.3715L21.3712 12.4723L9.61161 0.71361C9.26075 0.362372 8.69161 0.362372 8.34037 0.713234C8.34037 0.713422 8.34018 0.713422 8.34018 0.71361L0.712939 8.34086C0.3617 8.69172 0.3617 9.26086 0.712562 9.61209C0.712751 9.61228 0.712751 9.61228 0.712939 9.61228Z" fill="#00DDC2"/>
<path d="M21.1561 12.6175L23.4035 14.4153L14.6005 23.0565L12.595 21.248L21.1561 12.6175Z" fill="#CCA400"/>
</svg>
