<svg xmlns="http://www.w3.org/2000/svg" width="32.178" height="21.134" viewBox="0 0 32.178 21.134">
  <g id="console" transform="translate(0 -55.109)">
    <g id="Group_3" data-name="Group 3" transform="translate(0 55.109)">
      <g id="Group_2" data-name="Group 2" transform="translate(0 0)">
        <path id="Path_2" data-name="Path 2" d="M32.161,69.725a30.036,30.036,0,0,0-.882-5.811,22.3,22.3,0,0,0-1.8-4.89c-2.806-4.93-5.852-4.168-9.5-3.206a26.106,26.106,0,0,1-3.687.721h-.4a26.106,26.106,0,0,1-3.687-.721c-3.647-.922-6.693-1.723-9.5,3.246a20.432,20.432,0,0,0-1.8,4.89,30.036,30.036,0,0,0-.882,5.811,10.921,10.921,0,0,0,.561,4.569,3.037,3.037,0,0,0,1.924,1.8,3.919,3.919,0,0,0,2.565-.281A18.838,18.838,0,0,0,10.2,72.21c1.242-1.2,3.567-1.8,5.892-1.8s4.649.6,5.892,1.8a18.838,18.838,0,0,0,5.13,3.647,4.193,4.193,0,0,0,2.565.281A3,3,0,0,0,31.6,74.294,10.716,10.716,0,0,0,32.161,69.725Zm-1.924,4.008a1.589,1.589,0,0,1-.962,1,2.768,2.768,0,0,1-1.643-.2,16.345,16.345,0,0,1-4.649-3.327c-1.523-1.523-4.208-2.284-6.894-2.284s-5.371.761-6.934,2.2a16.653,16.653,0,0,1-4.649,3.327,2.486,2.486,0,0,1-1.643.2,1.589,1.589,0,0,1-.962-1,9.477,9.477,0,0,1-.4-3.848,27.646,27.646,0,0,1,.842-5.531,19.124,19.124,0,0,1,1.683-4.529c2.2-3.968,4.769-3.327,7.815-2.525a23.511,23.511,0,0,0,3.928.761h.6a23.22,23.22,0,0,0,3.968-.761c3.046-.761,5.611-1.443,7.815,2.525a18.481,18.481,0,0,1,1.683,4.529,30.335,30.335,0,0,1,.842,5.531A9.274,9.274,0,0,1,30.237,73.733Z" transform="translate(0 -55.109)" fill="#fff"/>
      </g>
    </g>
    <g id="Group_5" data-name="Group 5" transform="translate(4.146 59.104)">
      <g id="Group_4" data-name="Group 4" transform="translate(0 0)">
        <path id="Path_3" data-name="Path 3" d="M49.629,97.787a2.435,2.435,0,0,0-1.443-.681,2.281,2.281,0,0,0-.641-1.4l-.04-.04a2.27,2.27,0,0,0-1.643-.681,2.366,2.366,0,0,0-1.643.681,2.33,2.33,0,0,0-.681,1.443,2.388,2.388,0,0,0-1.443.641l-.04.04a2.27,2.27,0,0,0-.681,1.643,2.366,2.366,0,0,0,.681,1.643,2.234,2.234,0,0,0,1.483.681,2.138,2.138,0,0,0,.681,1.443,2.27,2.27,0,0,0,1.643.681,2.366,2.366,0,0,0,1.643-.681,2.435,2.435,0,0,0,.681-1.443,2.138,2.138,0,0,0,1.443-.681,2.27,2.27,0,0,0,.681-1.643A2.366,2.366,0,0,0,49.629,97.787Zm-1,2.244a.816.816,0,0,1-.6.24h-.561a.761.761,0,0,0-.761.761v.521a.842.842,0,1,1-1.683,0v-.561a.761.761,0,0,0-.761-.761H43.7a.822.822,0,0,1-.6-1.4l.04-.04a.958.958,0,0,1,.561-.2h.561a.761.761,0,0,0,.761-.761v-.561a.85.85,0,0,1,1.443-.6l.04.04a.958.958,0,0,1,.2.561v.561a.761.761,0,0,0,.761.761h.561a.85.85,0,0,1,.6,1.443Z" transform="translate(-41.373 -94.981)" fill="#fff"/>
      </g>
    </g>
    <g id="Group_7" data-name="Group 7" transform="translate(21.66 59.305)">
      <g id="Group_6" data-name="Group 6" transform="translate(0 0)">
        <circle id="Ellipse_1" data-name="Ellipse 1" cx="1.403" cy="1.403" r="1.403" fill="#fff"/>
      </g>
    </g>
    <g id="Group_9" data-name="Group 9" transform="translate(21.66 64.996)">
      <g id="Group_8" data-name="Group 8">
        <circle id="Ellipse_2" data-name="Ellipse 2" cx="1.403" cy="1.403" r="1.403" fill="#fff"/>
      </g>
    </g>
    <g id="Group_11" data-name="Group 11" transform="translate(18.815 62.15)">
      <g id="Group_10" data-name="Group 10">
        <circle id="Ellipse_3" data-name="Ellipse 3" cx="1.403" cy="1.403" r="1.403" fill="#fff"/>
      </g>
    </g>
    <g id="Group_13" data-name="Group 13" transform="translate(24.506 62.15)">
      <g id="Group_12" data-name="Group 12">
        <circle id="Ellipse_4" data-name="Ellipse 4" cx="1.403" cy="1.403" r="1.403" fill="#fff"/>
      </g>
    </g>
  </g>
</svg>
