<svg width="90" height="120" viewBox="0 0 90 120" fill="none" xmlns="http://www.w3.org/2000/svg">
<path fill-rule="evenodd" clip-rule="evenodd" d="M11.2404 110.259C15.1748 110.259 18.3643 108.663 18.3643 106.695C18.3643 104.726 15.1748 103.13 11.2404 103.13C7.30596 103.13 4.11646 104.726 4.11646 106.695C4.11646 108.663 7.30596 110.259 11.2404 110.259Z" fill="#683005"/>
<path fill-rule="evenodd" clip-rule="evenodd" d="M7.64551 105.691C7.64551 105.318 7.64551 94.554 7.64551 94.1817C7.64551 93.2035 9.24241 92.4075 11.2097 92.4075C13.1729 92.4075 14.7698 93.2035 14.7698 94.1817C14.7698 94.554 14.7698 105.318 14.7698 105.691C14.7698 106.669 13.1729 107.461 11.2097 107.461C9.24241 107.461 7.64551 106.669 7.64551 105.691Z" fill="url(#paint0_linear)"/>
<path fill-rule="evenodd" clip-rule="evenodd" d="M11.2097 95.9465C13.1768 95.9465 14.7715 95.1536 14.7715 94.1754C14.7715 93.1972 13.1768 92.4043 11.2097 92.4043C9.24258 92.4043 7.64795 93.1972 7.64795 94.1754C7.64795 95.1536 9.24258 95.9465 11.2097 95.9465Z" fill="#E09322"/>
<path fill-rule="evenodd" clip-rule="evenodd" d="M0.52417 95.7975L11.2097 101.111L21.74 95.8752L11.2097 69.2304L0.52417 95.7975Z" fill="url(#paint1_linear)"/>
<path fill-rule="evenodd" clip-rule="evenodd" d="M78.8835 119.133C82.818 119.133 86.0074 117.537 86.0074 115.569C86.0074 113.6 82.818 112.004 78.8835 112.004C74.9489 112.004 71.7595 113.6 71.7595 115.569C71.7595 117.537 74.9489 119.133 78.8835 119.133Z" fill="#683005"/>
<path fill-rule="evenodd" clip-rule="evenodd" d="M75.3186 114.548C75.3186 114.176 75.3186 103.411 75.3186 103.039C75.3186 102.061 76.9155 101.265 78.8828 101.265C80.846 101.265 82.4429 102.061 82.4429 103.039C82.4429 103.411 82.4429 114.176 82.4429 114.548C82.4429 115.526 80.846 116.318 78.8828 116.318C76.9155 116.318 75.3186 115.526 75.3186 114.548Z" fill="url(#paint2_linear)"/>
<path fill-rule="evenodd" clip-rule="evenodd" d="M78.8826 104.804C80.8494 104.804 82.4443 104.011 82.4443 103.033C82.4443 102.055 80.8494 101.261 78.8826 101.261C76.9153 101.261 75.3208 102.055 75.3208 103.033C75.3208 104.011 76.9153 104.804 78.8826 104.804Z" fill="#E09322"/>
<path fill-rule="evenodd" clip-rule="evenodd" d="M68.199 104.652L78.8843 109.965L89.4147 104.729L78.8843 86.0055L68.199 104.652Z" fill="url(#paint3_linear)"/>
<path fill-rule="evenodd" clip-rule="evenodd" d="M50.3883 101.419C54.3229 101.419 57.5123 99.8233 57.5123 97.8546C57.5123 95.8859 54.3229 94.2903 50.3883 94.2903C46.4538 94.2903 43.2644 95.8859 43.2644 97.8546C43.2644 99.8233 46.4538 101.419 50.3883 101.419Z" fill="#683005"/>
<path fill-rule="evenodd" clip-rule="evenodd" d="M46.8264 96.8349C46.8264 96.4626 46.8264 61.9358 46.8264 61.5636C46.8264 60.5853 48.4233 59.7893 50.3906 59.7893C52.3539 59.7893 53.9508 60.5853 53.9508 61.5636C53.9508 61.9358 53.9508 96.4626 53.9508 96.8349C53.9508 97.8131 52.3539 98.6052 50.3906 98.6052C48.4233 98.6052 46.8264 97.8131 46.8264 96.8349Z" fill="url(#paint4_linear)"/>
<path fill-rule="evenodd" clip-rule="evenodd" d="M50.3906 63.3283C52.3579 63.3283 53.9524 62.5354 53.9524 61.5572C53.9524 60.579 52.3579 59.7861 50.3906 59.7861C48.4234 59.7861 46.8289 60.579 46.8289 61.5572C46.8289 62.5354 48.4234 63.3283 50.3906 63.3283Z" fill="#E09322"/>
<path fill-rule="evenodd" clip-rule="evenodd" d="M29.0188 60.3743L50.3896 71.0008L71.761 60.3743L50.3896 0.155457L29.0188 60.3743Z" fill="url(#paint5_linear)"/>
<defs>
<linearGradient id="paint0_linear" x1="14.7005" y1="107.461" x2="14.7005" y2="92.7089" gradientUnits="userSpaceOnUse">
<stop stop-color="#E09322"/>
<stop offset="1" stop-color="#862A09"/>
</linearGradient>
<linearGradient id="paint1_linear" x1="22.9963" y1="101.111" x2="22.9963" y2="65.6882" gradientUnits="userSpaceOnUse">
<stop stop-color="#C0DA3F"/>
<stop offset="1" stop-color="#6C9904"/>
</linearGradient>
<linearGradient id="paint2_linear" x1="82.3732" y1="116.318" x2="82.3732" y2="101.566" gradientUnits="userSpaceOnUse">
<stop stop-color="#E09322"/>
<stop offset="1" stop-color="#862A09"/>
</linearGradient>
<linearGradient id="paint3_linear" x1="94.5674" y1="109.965" x2="94.5674" y2="74.5425" gradientUnits="userSpaceOnUse">
<stop stop-color="#C0DA3F"/>
<stop offset="1" stop-color="#6C9904"/>
</linearGradient>
<linearGradient id="paint4_linear" x1="53.9528" y1="98.6052" x2="53.9528" y2="59.7905" gradientUnits="userSpaceOnUse">
<stop stop-color="#E09322"/>
<stop offset="1" stop-color="#862A09"/>
</linearGradient>
<linearGradient id="paint5_linear" x1="71.761" y1="71.0008" x2="71.761" y2="0.155414" gradientUnits="userSpaceOnUse">
<stop stop-color="#C0DA3F"/>
<stop offset="1" stop-color="#6C9904"/>
</linearGradient>
</defs>
</svg>
