<svg width="23" height="20" viewBox="0 0 23 20" fill="none" xmlns="http://www.w3.org/2000/svg">
<path fill-rule="evenodd" clip-rule="evenodd" d="M10.0323 12.888C10.6455 12.8674 11.1614 13.2941 11.1845 13.8413C11.2367 15.0747 11.31 15.9749 11.3821 16.6203C11.453 17.256 11.8831 17.6384 12.4827 17.7038C13.1896 17.7809 14.1868 17.844 15.5553 17.844C16.9238 17.844 17.9211 17.7809 18.628 17.7038C19.2272 17.6384 19.6575 17.2558 19.7285 16.62C19.8622 15.422 19.9996 13.3521 19.9996 9.91332C19.9996 6.47456 19.8622 4.40469 19.7285 3.20663C19.6575 2.57084 19.2272 2.18822 18.628 2.12286C17.9211 2.04575 16.9238 1.98265 15.5553 1.98265C14.1868 1.98265 13.1896 2.04575 12.4827 2.12285C11.8831 2.18824 11.453 2.57069 11.3821 3.20632C11.31 3.85176 11.2367 4.75198 11.1845 5.98538C11.1614 6.53249 10.6455 6.95927 10.0323 6.93861C9.41912 6.91796 8.94079 6.4577 8.96394 5.91059C9.0175 4.64462 9.09345 3.70304 9.17086 3.00978C9.33358 1.55236 10.4724 0.34467 12.213 0.154833C13.0232 0.0664658 14.1118 -1.92743e-05 15.5553 -1.93306e-05C16.9988 -1.93869e-05 18.0874 0.0664693 18.8976 0.154842C20.6383 0.344705 21.777 1.55295 21.9397 3.01009C22.083 4.29313 22.2218 6.43222 22.2218 9.91332C22.2218 13.3944 22.083 15.5335 21.9397 16.8165C21.777 18.2737 20.6383 19.4819 18.8976 19.6718C18.0874 19.7602 16.9988 19.8267 15.5553 19.8267C14.1118 19.8267 13.0232 19.7602 12.213 19.6718C10.4725 19.482 9.33358 18.2743 9.17086 16.8169C9.09345 16.1236 9.0175 15.182 8.96394 13.916C8.94079 13.3689 9.41912 12.9087 10.0323 12.888Z" fill="#FD5C5C"/>
<path fill-rule="evenodd" clip-rule="evenodd" d="M5.78553 12.682C6.21944 13.0692 6.21944 13.6968 5.78553 14.084C5.35163 14.4711 4.64813 14.4711 4.21422 14.084L0.325429 10.6143C-0.108476 10.2272 -0.108476 9.5995 0.325429 9.21236L4.21422 5.74269C4.64813 5.35555 5.35163 5.35555 5.78553 5.74269C6.21944 6.12983 6.21944 6.7575 5.78553 7.14464L3.79348 8.922H14.4441C15.0577 8.922 15.5552 9.36584 15.5552 9.91334C15.5552 10.4608 15.0577 10.9047 14.4441 10.9047L3.79348 10.9047L5.78553 12.682Z" fill="#FD5C5C"/>
</svg>
