<svg width="25" height="25" viewBox="0 0 25 25" fill="none" xmlns="http://www.w3.org/2000/svg">
<path d="M24.9965 6.17842C24.9829 6.04033 24.9291 5.90176 24.8346 5.78647C24.7981 5.74189 25.1712 6.11782 19.2679 0.214551C19.1272 0.0738282 18.9362 -4.88039e-05 18.7498 2.41886e-08C18.3056 2.41886e-08 2.63975 2.41886e-08 2.19727 2.41886e-08C0.985693 2.41886e-08 0 0.985693 0 2.19727V22.8027C0 24.0143 0.985693 25 2.19727 25H22.8027C24.0143 25 25 24.0143 25 22.8027C25 5.02021 25.002 6.23457 24.9965 6.17842V6.17842ZM16.8458 1.46484V6.25C16.8458 6.65386 16.5172 6.98242 16.1133 6.98242H15.1856V1.46484H16.8458ZM13.7208 1.46484V6.98242H6.93364C6.52979 6.98242 6.20122 6.65386 6.20122 6.25V1.46484H13.7208ZM16.8458 15.6738H6.20122V14.7461C6.20122 14.3422 6.52979 14.0137 6.93364 14.0137H16.1133C16.5172 14.0137 16.8458 14.3422 16.8458 14.7461V15.6738ZM6.20122 23.5352V17.1387H16.8458V23.5352H6.20122ZM23.5352 22.8027C23.5352 23.2066 23.2066 23.5352 22.8028 23.5352H18.3106C18.3106 22.5803 18.3106 15.8346 18.3106 14.7461C18.3106 13.5345 17.3249 12.5488 16.1133 12.5488H6.93364C5.72207 12.5488 4.73638 13.5345 4.73638 14.7461V23.5352H2.19731C1.79346 23.5352 1.46489 23.2066 1.46489 22.8027V2.19727C1.46489 1.79341 1.79346 1.46484 2.19731 1.46484H4.73638V6.25C4.73638 7.46157 5.72207 8.44727 6.93364 8.44727H16.1133C17.3249 8.44727 18.3106 7.46157 18.3106 6.25V1.46484H18.4467L23.5352 6.55342V22.8027Z" fill="white"/>
</svg>
