<svg xmlns="http://www.w3.org/2000/svg" width="27.474" height="30.021" viewBox="0 0 27.474 30.021">
  <g id="grade" transform="translate(-21.638 0)">
    <path id="Path_4" data-name="Path 4" d="M136.969,178.3a.883.883,0,0,0,1.081-.627l.936-3.521,3.08-.3,1.177,3.87a.883.883,0,0,0,1.69-.514l-1.073-3.529.219-.021a.883.883,0,1,0-.169-1.758l-.574.055-2.083-6.849a.884.884,0,0,0-1.7.03l-1.96,7.372-1.585.153a.883.883,0,1,0,.169,1.758l.931-.09-.767,2.886A.883.883,0,0,0,136.969,178.3Zm3.5-9.71,1.077,3.541-2.071.2Z" transform="translate(-106.887 -154.807)" fill="#fff"/>
    <path id="Path_5" data-name="Path 5" d="M289.254,106.956a.883.883,0,0,0,.883-.883v-1.9c1.034.06.988.058,1.031.058a.883.883,0,0,0,.05-1.765l-1.081-.063v-1.087a.883.883,0,1,0-1.767,0v.985l-.979-.057a.883.883,0,0,0-.1,1.764l1.081.063v2A.883.883,0,0,0,289.254,106.956Z" transform="translate(-249.23 -94.523)" fill="#fff"/>
    <path id="Path_6" data-name="Path 6" d="M45.019,4.16a.883.883,0,1,0-1.287,1.211c4.039,4.293,4.822,12.137,1.745,17.484-2.657,4.62-7.58,6.36-13.861,4.9-6.427-1.492-8.93-8.22-8.023-13.793C24.622,7.648,30.311.7,42.96,1.9A.883.883,0,0,0,43.127.141C30.678-1.04,23.209,5.331,21.85,13.68c-1.142,7.015,2.387,14.177,9.367,15.8C37.792,31,43.76,29.384,47.009,23.736c3.421-5.947,2.607-14.689-1.99-19.576Z" transform="translate(0 0)" fill="#fff"/>
  </g>
</svg>
