<svg xmlns="http://www.w3.org/2000/svg" xmlns:xlink="http://www.w3.org/1999/xlink" width="26" height="26" viewBox="0 0 23.658 23.657">
  <defs>
    <linearGradient id="linear-gradient" x1="0.14" y1="0.14" x2="0.909" y2="0.909" gradientUnits="objectBoundingBox">
      <stop offset="0" stop-color="#b5dbff"/>
      <stop offset="1" stop-color="#48b2e3"/>
    </linearGradient>
    <linearGradient id="linear-gradient-2" x1="0.14" y1="0.551" x2="0.909" y2="1.32" xlink:href="#linear-gradient"/>
    <linearGradient id="linear-gradient-3" x1="1.107" y1="1.542" x2="-0.327" y2="-0.602" gradientUnits="objectBoundingBox">
      <stop offset="0" stop-color="#07485e" stop-opacity="0"/>
      <stop offset="0.333" stop-color="#063f52" stop-opacity="0.333"/>
      <stop offset="0.936" stop-color="#032632" stop-opacity="0.937"/>
      <stop offset="1" stop-color="#03232e"/>
    </linearGradient>
    <linearGradient id="linear-gradient-4" x1="0.14" y1="0.14" x2="0.909" y2="0.909" gradientUnits="objectBoundingBox">
      <stop offset="0" stop-color="#76e2f8"/>
      <stop offset="1" stop-color="#48b2e3"/>
    </linearGradient>
    <linearGradient id="linear-gradient-5" x1="1.391" y1="0.14" x2="2.16" y2="0.909" xlink:href="#linear-gradient-4"/>
  </defs>
  <g id="settings" transform="translate(0)">
    <g id="Group_1" data-name="Group 1" transform="translate(5.464 0)">
      <path id="Path_1" data-name="Path 1" d="M134.951,6.528h-.412a8.134,8.134,0,0,0-.452-1l.317-.317a1.027,1.027,0,0,0,0-1.453l-2.179-2.179a1.027,1.027,0,0,0-1.453,0l-.409.409a8.117,8.117,0,0,0-.913-.364V1.027A1.027,1.027,0,0,0,128.423,0h-3.082a1.027,1.027,0,0,0-1.027,1.027v.592a8.139,8.139,0,0,0-.913.364l-.409-.409a1.027,1.027,0,0,0-1.453,0L119.36,3.754a1.027,1.027,0,0,0,0,1.453l.317.317a8.135,8.135,0,0,0-.452,1h-.412a1.027,1.027,0,0,0-1.027,1.027v3.082a1.027,1.027,0,0,0,1.027,1.027h.228a8.117,8.117,0,0,0,.451,1.19l-.131.131a1.027,1.027,0,0,0,0,1.453l2.179,2.179a1.027,1.027,0,0,0,1.453,0l.039-.039a8.122,8.122,0,0,0,1.282.55v.037a1.027,1.027,0,0,0,1.027,1.027h3.082a1.027,1.027,0,0,0,1.027-1.027V17.13a8.134,8.134,0,0,0,1.282-.55l.039.039a1.027,1.027,0,0,0,1.453,0L134.4,14.44a1.027,1.027,0,0,0,0-1.453l-.131-.131a8.124,8.124,0,0,0,.451-1.19h.228a1.027,1.027,0,0,0,1.027-1.027V7.556A1.028,1.028,0,0,0,134.951,6.528Zm-8.069,6.13a3.284,3.284,0,1,1,3.284-3.284A3.284,3.284,0,0,1,126.882,12.658Z" transform="translate(-117.785 0)" fill="url(#linear-gradient)"/>
      <path id="Path_2" data-name="Path 2" d="M190.975,85.154A5.979,5.979,0,1,0,185,79.175,5.979,5.979,0,0,0,190.975,85.154Zm0-9.263a3.284,3.284,0,1,1-3.284,3.284A3.284,3.284,0,0,1,190.975,75.891Z" transform="translate(-181.878 -69.801)" fill="url(#linear-gradient-2)"/>
    </g>
    <path id="Path_3" data-name="Path 3" d="M125.591,239.519h3.082a1.022,1.022,0,0,0,.479-.118l-6.277-6.23a.678.678,0,0,0-.99,0l-.132.132-.986-.983a.666.666,0,0,0-.6-.226s-2.121-.012-2.115.027a1.027,1.027,0,0,0,1.015.87h.228a8.115,8.115,0,0,0,.451,1.19l-.131.131a1.027,1.027,0,0,0,0,1.453l2.179,2.179a1.027,1.027,0,0,0,1.453,0l.039-.039a8.122,8.122,0,0,0,1.282.55v.037A1.027,1.027,0,0,0,125.591,239.519Z" transform="translate(-112.572 -221.326)" fill="url(#linear-gradient-3)"/>
    <g id="Group_2" data-name="Group 2" transform="translate(0 10.675)">
      <path id="Path_4" data-name="Path 4" d="M12.249,234.788h-.294a5.8,5.8,0,0,0-.323-.717l.226-.226a.733.733,0,0,0,0-1.037L10.3,231.253a.733.733,0,0,0-1.037,0l-.292.292a5.811,5.811,0,0,0-.651-.26v-.422a.733.733,0,0,0-.733-.733h-2.2a.733.733,0,0,0-.733.733v.422a5.794,5.794,0,0,0-.651.26l-.292-.292a.733.733,0,0,0-1.037,0l-1.555,1.555a.733.733,0,0,0,0,1.037l.226.226a5.81,5.81,0,0,0-.323.717H.733a.733.733,0,0,0-.733.733v2.2a.733.733,0,0,0,.733.733H.9a5.792,5.792,0,0,0,.322.849l-.094.094a.733.733,0,0,0,0,1.037l1.555,1.555a.733.733,0,0,0,1.037,0l.028-.028a5.8,5.8,0,0,0,.915.393v.026a.733.733,0,0,0,.733.733h2.2a.733.733,0,0,0,.733-.733v-.026a5.8,5.8,0,0,0,.915-.393l.028.028a.733.733,0,0,0,1.037,0l1.555-1.555a.733.733,0,0,0,0-1.037l-.094-.094a5.8,5.8,0,0,0,.322-.849h.162a.733.733,0,0,0,.733-.733v-2.2A.733.733,0,0,0,12.249,234.788Zm-5.758,4.374a2.343,2.343,0,1,1,2.343-2.343A2.343,2.343,0,0,1,6.491,239.162Z" transform="translate(0 -230.129)" fill="url(#linear-gradient-4)"/>
      <path id="Path_5" data-name="Path 5" d="M55.24,283.607a4.267,4.267,0,1,0,0,6.034A4.266,4.266,0,0,0,55.24,283.607Zm-4.674,4.674a2.343,2.343,0,1,1,3.314,0A2.343,2.343,0,0,1,50.566,288.28Z" transform="translate(-45.732 -279.934)" fill="url(#linear-gradient-5)"/>
    </g>
  </g>
</svg>
