<svg width="26" height="26" viewBox="0 0 26 26" fill="none" xmlns="http://www.w3.org/2000/svg">
<path d="M17.8766 17.1831L14.7034 15.3226C14.5304 15.3435 14.3571 15.3778 14.1846 15.4271C13.3562 15.6649 12.158 16.3467 11.1537 18.2456C10.3564 19.753 10.6506 21.0436 10.9103 22.1824C11.1584 23.2709 11.3544 24.1307 10.6253 24.9907C10.5537 25.0752 10.5341 25.1922 10.5743 25.2955C10.5996 25.3605 10.6461 25.4134 10.7042 25.4472C10.7386 25.4672 10.7772 25.4805 10.818 25.4857C12.6621 25.7174 15.4221 24.6299 17.1243 21.6947C17.8975 20.3616 18.2295 19.0798 18.0847 17.9878C18.047 17.7029 17.9762 17.434 17.8766 17.1831ZM14.7666 17.3842C14.7097 17.5351 14.5975 17.6548 14.4505 17.7214C13.379 18.2064 13.1873 19.0541 13.1797 19.09C13.1373 19.3129 12.9651 19.4978 12.7422 19.557C12.7224 19.5623 12.7024 19.5665 12.6821 19.5698C12.6132 19.5808 12.5433 19.5796 12.4743 19.5665C12.1471 19.5041 11.9316 19.1874 11.9939 18.8602C12.0054 18.7998 12.295 17.3712 13.9525 16.621C13.9831 16.6071 14.0146 16.596 14.0466 16.5874C14.333 16.5112 14.6296 16.652 14.7518 16.9221C14.8182 17.0691 14.8235 17.2332 14.7666 17.3842Z" fill="#393842"/>
<path d="M25.3012 0.673617C24.6648 0.304553 23.8512 0.490444 23.4382 1.09939C23.1786 1.48217 17.0722 10.4888 16.286 11.8444C15.8929 12.5222 15.4498 13.6225 15.0813 14.6285L18.2545 16.4889C18.9456 15.669 19.6842 14.7338 20.0829 14.0464C20.8783 12.675 25.6542 2.91687 25.8571 2.50215C26.1806 1.84114 25.9378 1.04268 25.3012 0.673617Z" fill="#393842"/>
<path d="M10.0611 20.5986C9.78944 20.5079 9.52474 20.4547 9.25623 20.4382C9.21112 20.4354 9.16268 20.434 9.11231 20.434C8.70828 20.434 8.20055 20.5225 7.70955 20.6082C7.272 20.6846 6.85867 20.7566 6.57029 20.7566C6.36743 20.7566 6.29731 20.7194 6.27466 20.7C6.02953 20.3923 6.38379 19.5572 6.53544 19.1993C6.57421 19.108 6.60477 19.0359 6.62241 18.9844C6.86833 18.2608 7.04897 17.4904 6.70847 16.7593C6.42541 16.1514 5.76373 15.6676 5.02808 15.5278C4.81381 15.4772 4.56788 15.4537 4.25408 15.4537C3.99578 15.4537 3.71935 15.47 3.45199 15.4859C3.17781 15.5022 2.89426 15.519 2.62273 15.519C1.6888 15.519 1.15118 15.3059 0.826084 14.8082C0.222632 13.8501 0.947415 12.1338 1.69164 11.4191C1.73742 11.3752 1.74135 11.3033 1.70064 11.2546C1.65988 11.2058 1.58849 11.1969 1.5371 11.2342C0.584027 11.9247 -0.0469641 13.1792 0.00273971 14.2849C0.0292525 14.8746 0.256211 15.6937 1.18718 16.2481C1.68832 16.5464 2.4988 16.6092 3.28259 16.67C4.05369 16.7297 4.85107 16.7916 5.09681 17.0914C5.16119 17.1699 5.18571 17.265 5.17127 17.3848C5.11764 17.9331 4.85161 18.473 4.59428 18.995C4.10829 19.981 3.60575 21.0006 4.47433 22.132C5.23716 23.1256 6.24984 23.1256 7.29018 23.1183C7.37533 23.1177 7.46067 23.1171 7.54595 23.1171C7.9998 23.1171 8.52408 23.131 8.9995 23.2966C9.33782 23.4277 9.50795 23.6989 9.58755 24.237C9.64849 24.5669 9.79506 24.8266 9.98959 25.0221C10.018 24.8705 10.0848 24.7259 10.1883 24.6038C10.6991 24.0007 10.5991 23.437 10.3439 22.3202C10.2254 21.8011 10.0941 21.2257 10.0611 20.5986Z" fill="#393842"/>
</svg>
