<svg width="24" height="24" viewBox="0 0 24 24" fill="none" xmlns="http://www.w3.org/2000/svg">
<path d="M11.9998 15.9549C11.591 15.9549 11.2598 16.2862 11.2598 16.6949V21.1869C11.2598 21.5957 11.591 21.927 11.9998 21.927C12.4085 21.927 12.7398 21.5957 12.7398 21.1869V16.6949C12.7398 16.2862 12.4085 15.9549 11.9998 15.9549Z" fill="#2F4859"/>
<path d="M18.5944 22.9548L15.6344 16.3908C15.4661 16.0179 15.027 15.8522 14.6556 16.0202C14.283 16.1884 14.1171 16.6263 14.285 16.9989L17.245 23.563C17.3687 23.837 17.6382 23.9992 17.92 23.9992C18.0217 23.9992 18.1252 23.9781 18.2238 23.9336C18.5964 23.7654 18.7623 23.3275 18.5944 22.9548Z" fill="#2F4859"/>
<path d="M9.34363 16.021C8.97188 15.8531 8.53284 16.0187 8.36489 16.3916L5.4049 22.9557C5.23695 23.3283 5.4029 23.7662 5.77549 23.9344C5.87403 23.979 5.97752 24.0001 6.07929 24.0001C6.3611 24.0001 6.63081 23.8379 6.75423 23.5638L9.71422 16.9998C9.88217 16.6272 9.71628 16.1893 9.34363 16.021Z" fill="#2F4859"/>
<path d="M0.751709 15.6549V1.15876C0.751709 0.584412 1.21729 0.118774 1.79169 0.118774H22.2079C22.7822 0.118774 23.2478 0.584357 23.2478 1.15876V15.6549C23.2478 16.2292 22.7823 16.6949 22.2079 16.6949H1.79169C1.21735 16.6949 0.751709 16.2292 0.751709 15.6549Z" fill="#64798A"/>
<path d="M3.11947 1.59863C2.62902 1.59863 2.23145 1.99626 2.23145 2.48666V10.1113L15.2097 1.59863H3.11947Z" fill="#D5D6DB"/>
<path d="M20.8797 1.59863H15.2099L2.23169 10.1113V14.3267C2.23169 14.8171 2.62926 15.2147 3.11972 15.2147H20.8798C21.3702 15.2147 21.7678 14.8172 21.7678 14.3267V2.48666C21.7677 1.99626 21.3701 1.59863 20.8797 1.59863Z" fill="#E1E6E9"/>
</svg>
